<?xml version="1.0" standalone="no"?>
<!DOCTYPE svg PUBLIC "-//W3C//DTD SVG 20010904//EN"
 "http://www.w3.org/TR/2001/REC-SVG-20010904/DTD/svg10.dtd">
<svg version="1.0" xmlns="http://www.w3.org/2000/svg"
 width="409.000000pt" height="140.000000pt" viewBox="0 0 409.000000 140.000000"
 preserveAspectRatio="xMidYMid meet">

<g transform="translate(0.000000,140.000000) scale(0.100000,-0.100000)"
fill="#000000" stroke="none">
<path d="M920 1280 c-69 -24 -114 -71 -135 -144 -14 -46 -16 -106 -13 -388 l3
-333 28 -58 c22 -44 39 -63 75 -85 42 -24 57 -27 132 -26 104 1 172 27 226 86
69 77 69 74 69 458 0 337 -1 346 -22 386 -12 23 -36 53 -53 67 -66 56 -207 73
-310 37z m188 -156 c22 -25 22 -28 22 -328 0 -189 -4 -315 -11 -334 -20 -59
-104 -76 -146 -30 -16 18 -18 46 -21 337 -2 241 1 322 11 341 28 55 103 62
145 14z"/>
<path d="M100 709 c0 -548 1 -580 18 -575 9 2 37 7 62 11 89 13 80 -35 81 428
l0 412 40 -140 c22 -77 71 -255 109 -395 47 -176 72 -255 81 -255 8 0 49 4 92
8 l77 9 0 539 0 539 -80 0 -80 0 -1 -307 0 -308 -87 308 -86 307 -113 0 -113
0 0 -581z"/>
<path d="M1370 1220 l0 -70 90 0 90 0 0 -430 0 -430 90 0 90 0 0 430 0 429 93
3 92 3 3 68 3 67 -276 0 -275 0 0 -70z"/>
<path d="M1990 795 l0 -495 90 0 90 0 0 210 0 210 115 0 115 0 0 70 0 70 -115
0 -115 0 0 145 0 145 145 0 145 0 0 70 0 70 -235 0 -235 0 0 -495z"/>
<path d="M2540 791 l0 -499 63 -6 c34 -3 107 -8 162 -11 55 -3 133 -8 173 -12
l72 -6 0 80 0 80 -97 6 c-54 4 -119 7 -145 7 l-48 0 0 430 0 430 -90 0 -90 0
0 -499z"/>
<path d="M3080 770 l0 -520 23 -1 c12 0 52 -3 90 -8 l67 -7 0 528 0 528 -90 0
-90 0 0 -520z"/>
<path d="M3365 1273 c3 -10 36 -99 71 -198 36 -99 74 -206 86 -237 l20 -56
-57 -159 c-65 -180 -135 -384 -135 -394 0 -4 33 -10 73 -14 39 -4 76 -8 81 -8
5 -1 42 95 82 213 39 118 74 208 78 200 6 -15 90 -299 120 -401 l16 -56 92
-15 c51 -9 94 -15 95 -14 3 2 -94 322 -155 512 l-38 120 87 250 c49 137 88
255 89 262 0 10 -20 12 -81 10 l-82 -3 -66 -193 -66 -192 -65 195 -65 195 -93
0 c-86 0 -94 -2 -87 -17z"/>
</g>
</svg>
